HIERARCHY
ROOT Hips
{
  OFFSET 0 0 0
  CHANNELS 6 Xposition Yposition Zposition Zrotation Yrotation Xrotation
  JOINT LeftThigh
  {
    OFFSET 8.409438 0 -5.917753
    CHANNELS 3 Zrotation Yrotation Xrotation
    JOINT LeftLeg
    {
      OFFSET 0 0 -42.358652
      CHANNELS 3 Zrotation Yrotation Xrotation
      JOINT LeftFoot
      {
        OFFSET 0 0 -39.357303
        CHANNELS 3 Zrotation Yrotation Xrotation
      }
    }
  }
  JOINT RightThigh
  {
    OFFSET -8.409438 0 -5.917753
    CHANNELS 3 Zrotation Yrotation Xrotation
    JOINT RightLeg
    {
      OFFSET 0 0 -42.358652
      CHANNELS 3 Zrotation Yrotation Xrotation
      JOINT RightFoot
      {
        OFFSET 0 0 -39.357303
        CHANNELS 3 Zrotation Yrotation Xrotation
      }
    }
  }
  JOINT SpineLow
  {
    OFFSET 0 0 4.719101
    CHANNELS 3 Zrotation Yrotation Xrotation
    JOINT SpineMid
    {
      OFFSET 0 0 12.899191
      CHANNELS 3 Zrotation Yrotation Xrotation
      JOINT Chest
      {
        OFFSET 0 0 12.899191
        CHANNELS 3 Zrotation Yrotation Xrotation
        JOINT LeftShoulder
        {
          OFFSET 7.550562 1.41573 9.438202
          CHANNELS 3 Zrotation Yrotation Xrotation
          JOINT LeftArm
          {
            OFFSET 9.155056 0 4.247191
            CHANNELS 3 Zrotation Yrotation Xrotation
            JOINT LeftForearm
            {
              OFFSET 0 0 25.771955
              CHANNELS 3 Zrotation Yrotation Xrotation
              JOINT LeftHand
              {
                OFFSET 0 0 25.197169
                CHANNELS 3 Zrotation Yrotation Xrotation
              }
            }
          }
        }
        JOINT RightShoulder
        {
          OFFSET -7.550562 1.41573 9.438202
          CHANNELS 3 Zrotation Yrotation Xrotation
          JOINT RightArm
          {
            OFFSET -9.155056 0 4.247191
            CHANNELS 3 Zrotation Yrotation Xrotation
            JOINT RightForearm
            {
              OFFSET 0 0 -25.771955
              CHANNELS 3 Zrotation Yrotation Xrotation
              JOINT RightHand
              {
                OFFSET 0 0 -25.197169
                CHANNELS 3 Zrotation Yrotation Xrotation
              }
            }
          }
        }
        JOINT Neck
        {
          OFFSET 0 0 15.101124
          CHANNELS 3 Zrotation Yrotation Xrotation
          JOINT Head
          {
            OFFSET 0 0 11.325843
            CHANNELS 3 Zrotation Yrotation Xrotation
            End Site
            {
              OFFSET 0 0 14.157303
            }
          }
        }
      }
    }
  }
}
MOTION
Frames: 17
Frame Time: 0.0
0.0  89.887642  0.0  74.824633  -39.424225  -156.583701  21.690628  -46.869774  -39.997761  11.392523  43.066325  61.387838  -1.681909  1.074025  8.812661  -25.038071  28.073642  -32.680419  13.731453  14.636161  27.772034  7.321738  1.964287  -1.952015  1.244718  3.421428  1.263757  3.60294  9.280754  3.652594  3.60294  9.280753  3.652595  7.055316  8.245217  11.379806  -168.285829  38.015145  -152.860588  -38.752651  1.878185  102.059624  67.808176  46.970426  -33.241761  -1.668004  -6.708192  6.438042  147.46054  31.384194  53.126759  -33.05734  33.513695  -85.6295  83.341139  9.787254  19.311006  23.924716  14.280661  11.335764  17.587046  11.175561  7.901726  
0.0  89.887642  0.0  71.637162  -38.719739  -154.857318  22.23345  -46.951971  -41.933906  15.544041  44.435211  66.459956  -0.851289  0.772729  8.739039  -26.733765  28.136699  -32.737258  13.840709  14.50055  29.150369  7.190522  1.91843  -1.9591  1.116111  3.300238  1.388095  3.258439  8.950683  3.96884  3.258439  8.950682  3.96884  7.504885  8.593751  11.893469  -169.659276  37.125039  -151.924701  -37.407491  1.605044  102.994191  68.385479  47.750381  -33.798074  -1.983083  -6.180211  6.921193  147.425259  32.225276  52.95921  -33.434246  31.942207  -85.367079  83.202863  9.756067  19.383568  23.582637  14.217643  11.795187  17.323503  11.13935  8.255875  
0.0  89.887642  0.0  69.105475  -37.737642  -154.827321  20.145924  -47.545482  -41.273132  20.746265  45.467827  72.008013  0.13794  0.574005  8.551995  -25.962052  29.833622  -30.376329  12.48832  14.344746  30.094759  6.896531  2.058576  -2.058909  1.105109  3.260538  1.734319  3.271853  8.825099  4.916239  3.271854  8.8251  4.916239  7.773262  8.654826  12.248109  -171.432526  36.071535  -151.151713  -36.004354  0.67455  103.754183  67.945795  48.465949  -35.122304  -2.257011  -5.798803  7.237271  146.955232  33.062758  52.603159  -33.97012  30.377753  -85.265958  83.190941  9.771141  19.483572  22.966517  14.10263  12.040669  16.861959  11.049509  8.458597  
0.0  89.887642  0.0  66.258789  -36.693108  -154.879122  16.693794  -48.698078  -39.967473  27.000516  46.232322  78.113794  0.969679  0.348559  8.334465  -24.72435  31.404138  -26.912201  10.693215  14.474087  30.658758  6.703  2.442842  -2.18681  1.011803  3.210616  2.109398  3.060795  8.677567  5.931209  3.060795  8.677567  5.931209  8.418612  8.679595  12.681009  -173.76289  35.125217  -150.748174  -34.61527  -1.058709  104.550712  66.515679  49.138273  -37.139116  -1.916759  -5.51818  7.580449  145.877706  33.882441  52.033919  -34.613417  28.903563  -85.389891  83.290475  9.822799  19.601904  22.435068  13.978046  12.181943  16.466231  10.949962  8.58174  
0.0  89.887642  0.0  63.379061  -35.584198  -154.763806  13.652263  -49.832713  -38.934688  33.05763  47.188822  84.144711  1.796535  0.163004  8.110955  -24.156272  32.503721  -23.698131  9.119998  14.78931  30.938659  6.407523  2.641525  -2.350286  0.901462  3.197307  2.488743  2.806226  8.634054  6.958072  2.806226  8.634055  6.958072  8.979303  8.602738  12.879046  -176.536722  34.413747  -150.679368  -33.174457  -3.243109  105.066225  64.810045  49.687555  -39.581255  -1.305203  -5.467907  7.758957  144.182314  34.87541  51.110841  -35.142946  27.483762  -85.627266  83.470093  9.916498  19.728928  21.788092  13.776552  12.086985  15.991864  10.781379  8.53401  
0.0  89.887642  0.0  60.901923  -34.848568  -153.927971  12.80954  -50.806261  -39.662355  38.626229  48.24378  89.988682  2.670363  0.069772  7.912264  -24.464369  32.765201  -21.925485  8.142144  15.161932  31.201833  6.302406  2.654927  -2.495294  0.830392  3.182112  2.732135  2.641133  8.589573  7.616529  2.641133  8.589572  7.61653  9.472733  8.571497  12.752394  -179.446878  33.95163  -150.709486  -31.94845  -5.106213  105.112259  63.477172  50.193956  -41.859599  -0.465073  -5.512814  7.818823  141.82745  36.079842  49.736563  -35.426925  26.12555  -85.924472  83.702126  10.124436  19.820756  21.0748  13.544283  11.828301  15.472201  10.582799  8.366152  
0.0  89.887642  0.0  59.035021  -34.512947  -152.188021  14.208551  -51.520816  -42.390298  44.115752  49.031885  95.644285  3.578942  0.005581  7.750451  -25.379214  32.144161  -21.843785  7.679596  15.537201  31.542744  6.325057  2.591058  -2.591896  0.838913  3.152247  2.748912  2.662965  8.506354  7.661901  2.662965  8.506354  7.661902  9.822942  8.612684  12.565959  177.417287  33.836687  -151.026938  -31.012401  -6.10496  104.891604  62.188784  50.662163  -44.363093  0.359915  -5.533761  8.059636  138.957116  37.256867  47.961714  -35.561529  24.853887  -86.280563  83.956652  10.462391  19.822035  20.274395  13.246802  11.637106  14.887634  10.33645  8.252639  
0.0  89.887642  0.0  57.379899  -34.547354  -149.369281  17.474298  -51.953992  -46.957213  49.246568  49.495933  100.771456  4.56355  -0.002051  7.668674  -26.750589  30.618541  -23.001488  7.457877  15.674666  31.753489  6.351042  2.637082  -2.548055  0.858072  3.072593  2.53924  2.679316  8.296088  7.083721  2.679316  8.296087  7.08372  10.391717  8.832341  12.431923  173.687898  34.160654  -151.847355  -30.451919  -6.611789  104.684014  59.732859  51.113363  -47.669593  1.366941  -5.353077  8.514357  135.514708  38.283957  45.724595  -36.060935  23.812668  -86.481448  84.140338  11.147749  19.35583  19.522204  12.965314  11.595935  14.335039  10.108533  8.248793  
0.0  89.887642  0.0  55.619924  -34.436565  -146.578828  20.769834  -52.074864  -51.404966  53.897071  49.675126  105.499664  5.467471  0.010502  7.558988  -28.169399  29.050193  -24.075322  7.709236  15.668991  32.131037  6.138952  2.660601  -2.484635  0.872906  3.012883  2.373182  2.69269  8.138874  6.626113  2.69269  8.138874  6.626113  10.759922  8.944754  11.806781  169.63546  34.618574  -153.276483  -30.072067  -6.843927  104.314093  56.188912  51.474452  -51.433928  2.458013  -5.182279  8.7876  131.727949  39.036953  43.194546  -36.12596  22.593727  -86.929284  84.494892  11.538068  19.224042  18.659903  12.676912  11.451269  13.702113  9.870167  8.169264  
0.0  89.887642  0.0  53.632338  -34.144035  -144.218623  23.808938  -52.119879  -55.345939  58.063328  49.634674  110.041542  6.20033  -0.023045  7.400281  -30.509346  27.161146  -25.027226  9.165047  15.703693  32.4621  5.946786  2.641441  -2.319822  1.003046  2.997981  2.344737  3.044538  8.086371  6.56303  3.044538  8.08637  6.563031  10.476346  8.632901  10.731128  165.075135  35.020023  -155.018897  -30.00282  -6.674598  103.951454  52.194074  52.162658  -55.610505  2.889555  -5.271718  8.868855  127.606645  39.585779  40.348409  -36.275387  21.375402  -87.388738  84.877615  11.871786  18.919689  17.282831  12.157723  11.156781  12.693251  9.444692  7.99498  
0.0  89.887642  0.0  51.18321  -33.932693  -141.532484  27.558935  -52.079841  -60.016707  61.622281  49.379987  114.438003  6.747069  -0.087892  7.160216  -31.244351  25.800676  -24.477309  8.809758  15.570124  32.145095  5.62477  2.604461  -2.204778  1.206856  2.927937  2.318853  3.592775  7.876114  6.511772  3.592776  7.876114  6.511773  9.77977  8.14751  9.333645  159.925985  35.199437  -156.961131  -30.014056  -6.385671  103.482717  46.943448  52.882683  -61.582866  2.792586  -5.319445  8.951863  123.436988  39.927521  37.525972  -36.597233  20.008098  -87.931212  85.318259  12.014416  18.438598  15.526997  11.538748  10.886146  11.401923  8.939434  7.846058  
0.0  89.887642  0.0  48.512016  -33.857902  -138.656687  31.721169  -51.791091  -64.851145  64.416356  49.048199  118.29025  7.124623  -0.176382  6.849973  -31.383795  24.329216  -23.352763  7.757351  15.551229  31.517306  5.449137  2.652032  -2.123682  1.467438  2.794041  2.243868  4.284137  7.489634  6.325991  4.284137  7.489634  6.325992  9.091481  7.57095  8.028151  154.239996  35.03962  -158.811625  -30.167078  -5.650777  102.847309  41.055868  53.289703  -69.421882  2.510352  -5.209615  9.276521  119.190769  40.100974  34.735016  -37.047313  18.569198  -88.524967  85.778453  11.899192  17.727722  13.622225  10.873988  10.781336  9.99564  8.402774  7.821184  
0.0  89.887642  0.0  45.351918  -33.622855  -135.362426  35.747277  -51.040422  -69.770808  66.474104  48.789504  121.554283  7.42109  -0.278424  6.537861  -31.515552  22.650469  -22.056114  6.366449  15.624134  30.746726  5.256766  2.598531  -2.023435  1.751983  2.632876  2.1446  5.036233  7.029868  6.071004  5.036233  7.029868  6.071003  8.046141  6.88871  7.003426  148.583567  34.875041  -160.027799  -31.093765  -3.640968  101.774809  36.84975  53.371455  -77.136144  1.911253  -5.15617  9.648191  114.871705  40.402037  32.218706  -37.407035  16.789363  -89.221001  86.28186  11.539701  16.846731  11.442035  10.072912  10.684545  8.384634  7.759994  7.805582  
0.0  89.887642  0.0  41.689578  -33.053517  -131.642068  39.358392  -49.667709  -74.675139  67.780169  48.760327  124.337617  7.709065  -0.34263  6.229214  -31.626497  20.754628  -20.605914  4.553067  15.800641  29.837436  5.169521  2.552894  -1.931915  1.969176  2.437609  2.040012  5.60088  6.485793  5.788062  5.60088  6.485793  5.788062  6.992242  6.365451  6.025426  143.201324  34.860578  -160.616419  -33.052448  -0.323621  100.119847  35.327316  53.46579  -83.19164  1.39283  -5.070814  9.932217  110.636623  40.752783  30.019242  -37.672379  14.805612  -89.921877  86.840332  11.03429  15.887998  9.464555  9.287436  10.62397  6.922573  7.13416  7.807731  
0.0  89.887642  0.0  37.592254  -32.313496  -127.332366  42.913311  -47.68752  -79.909978  68.570646  48.964816  126.822209  8.031222  -0.389803  5.947021  -31.883481  18.247085  -19.220064  2.812107  15.960591  28.840341  4.946881  2.53554  -1.909289  2.136927  2.198873  1.887166  6.023368  5.833652  5.361262  6.023368  5.833652  5.361262  6.034643  5.835122  4.860937  138.031394  34.805891  -160.77009  -35.044545  2.739029  98.30256  34.191001  53.175747  -88.411842  0.941637  -5.015092  10.140082  106.537352  41.34586  28.269085  -37.693453  12.515083  -90.651619  87.372294  10.510202  14.928416  7.17596  8.492332  10.333032  5.229319  6.493514  7.636428  
0.0  89.887642  0.0  33.38801  -31.38546  -123.525209  45.611774  -45.828705  -84.298098  69.171087  49.344381  129.103624  8.390181  -0.399686  5.687806  -32.068945  15.741312  -17.383665  1.17147  16.097446  27.783963  4.725636  2.622898  -1.872048  2.304201  1.940146  1.810308  6.451634  5.121503  5.137706  6.451634  5.121503  5.137706  5.055838  5.318012  3.774467  133.193351  34.925505  -160.583967  -36.66195  4.656328  96.183677  33.94687  52.112579  -91.534046  0.482667  -5.067239  10.362114  102.701872  42.19439  26.949298  -37.554571  10.027022  -91.413183  87.822196  10.079314  14.031369  4.919297  7.643511  9.983284  3.559576  5.815104  7.415053  
0.0  89.887642  0.0  29.360301  -29.865415  -120.383198  47.103696  -44.118152  -87.667915  69.870589  49.715264  131.293413  8.71705  -0.425232  5.452566  -32.320886  13.603635  -15.281019  -0.369413  16.171061  26.714166  4.323912  2.772684  -1.840804  2.413882  1.671139  1.787336  6.72671  4.38126  5.053658  6.72671  4.38126  5.053659  4.037651  5.141958  3.204997  128.911309  35.366105  -160.096308  -38.13388  5.811343  93.940083  35.398873  51.288542  -91.874363  -0.020262  -4.846444  10.819107  99.121652  43.244132  25.761705  -37.309949  7.538333  -92.131739  88.168819  9.888019  13.215647  2.679851  6.888461  9.660991  1.898648  5.210295  7.206824  
